<mxfile host="app.diagrams.net" modified="2024-07-02T18:50:43.601Z" agent="Mozilla/5.0 (Windows NT 10.0; Win64; x64) AppleWebKit/537.36 (KHTML, like Gecko) Chrome/124.0.0.0 YaBrowser/24.6.0.0 Safari/537.36" etag="Ysk2XZ7vY4hrDlWphEE_" version="24.5.4" type="device">
  <diagram name="Страница — 1" id="aDuyNgICmEAsixMiKRkv">
    <mxGraphModel dx="1434" dy="783" grid="1" gridSize="10" guides="1" tooltips="1" connect="1" arrows="1" fold="1" page="1" pageScale="1" pageWidth="827" pageHeight="1169" math="0" shadow="0">
      <root>
        <mxCell id="0" />
        <mxCell id="1" parent="0" />
        <mxCell id="ab8NfdZOshyiOfxoeVq6-1" value="Start" style="ellipse;whiteSpace=wrap;html=1;" vertex="1" parent="1">
          <mxGeometry x="354" y="80" width="120" height="80" as="geometry" />
        </mxCell>
        <mxCell id="ab8NfdZOshyiOfxoeVq6-2" value="&lt;span style=&quot;color: rgb(44, 45, 48); font-family: Onest, Roboto, &amp;quot;San Francisco&amp;quot;, &amp;quot;Helvetica Neue&amp;quot;, Helvetica, Arial; font-size: 15px; text-align: start; background-color: rgb(255, 255, 255);&quot;&gt;Написать программу, которая из имеющегося массива строк формирует новый массив из строк, длина которых меньше, либо равна 3 символам.&lt;/span&gt;" style="text;html=1;align=center;verticalAlign=middle;whiteSpace=wrap;rounded=0;" vertex="1" parent="1">
          <mxGeometry y="30" width="820" height="30" as="geometry" />
        </mxCell>
        <mxCell id="ab8NfdZOshyiOfxoeVq6-3" value="SecondArrayWithIf" style="rounded=1;whiteSpace=wrap;html=1;" vertex="1" parent="1">
          <mxGeometry x="354" y="200" width="120" height="60" as="geometry" />
        </mxCell>
        <mxCell id="ab8NfdZOshyiOfxoeVq6-4" value="String[] array1&lt;div&gt;string array2&lt;/div&gt;&lt;div&gt;int count = 0&lt;/div&gt;" style="shape=parallelogram;perimeter=parallelogramPerimeter;whiteSpace=wrap;html=1;fixedSize=1;" vertex="1" parent="1">
          <mxGeometry x="350" y="310" width="120" height="60" as="geometry" />
        </mxCell>
        <mxCell id="ab8NfdZOshyiOfxoeVq6-5" value="for (int i =0;&lt;div&gt;i &amp;lt;array1.lenght;&lt;/div&gt;&lt;div&gt;i++)&lt;/div&gt;" style="shape=hexagon;perimeter=hexagonPerimeter2;whiteSpace=wrap;html=1;fixedSize=1;" vertex="1" parent="1">
          <mxGeometry x="350" y="420" width="120" height="80" as="geometry" />
        </mxCell>
        <mxCell id="ab8NfdZOshyiOfxoeVq6-6" value="array2[count] = array1[i]" style="rounded=0;whiteSpace=wrap;html=1;" vertex="1" parent="1">
          <mxGeometry x="130" y="430" width="160" height="60" as="geometry" />
        </mxCell>
      </root>
    </mxGraphModel>
  </diagram>
</mxfile>
